<svg width="15" height="15" viewBox="0 0 15 15" fill="none" xmlns="http://www.w3.org/2000/svg">
<g clip-path="url(#clip0_21_2771)">
<path d="M9.85666 2.7454C9.47412 2.74632 9.10235 2.87218 8.79793 3.10384C8.4935 3.33551 8.2731 3.66028 8.17025 4.02874L5.80833 12.5267C5.75186 12.7316 5.63025 12.9125 5.46187 13.0422C5.29349 13.1718 5.08749 13.2432 4.875 13.2454C4.66716 13.2427 4.46513 13.1764 4.29601 13.0556C4.12689 12.9347 3.99877 12.7651 3.92883 12.5693L2.29958 8.08932C2.1934 7.78407 2.01548 7.50877 1.7808 7.28657C1.54611 7.06437 1.26151 6.90176 0.950914 6.8124C0.800536 6.77597 0.670791 6.68129 0.590221 6.54919C0.509651 6.4171 0.484855 6.2584 0.521289 6.10803C0.557723 5.95765 0.652403 5.8279 0.784498 5.74733C0.916594 5.66676 1.07529 5.64197 1.22566 5.6784C1.7239 5.81193 2.18203 6.06503 2.56029 6.41573C2.93854 6.76644 3.2255 7.20416 3.39625 7.6909L4.83941 11.6576L7.04675 3.7149C7.21863 3.10144 7.58607 2.56085 8.09324 2.17529C8.60041 1.78973 9.21958 1.58027 9.85666 1.57874H13.9167C14.0714 1.57874 14.2197 1.64019 14.3291 1.74959C14.4385 1.85899 14.5 2.00736 14.5 2.16207C14.5 2.31678 14.4385 2.46515 14.3291 2.57455C14.2197 2.68394 14.0714 2.7454 13.9167 2.7454H9.85666ZM14.2667 7.52874C14.1429 7.43591 13.9873 7.39605 13.8342 7.41793C13.681 7.43981 13.5428 7.52163 13.45 7.6454L12.1667 9.35632L10.8833 7.6454C10.7905 7.52163 10.6523 7.43981 10.4992 7.41793C10.346 7.39605 10.1904 7.43591 10.0667 7.52874C9.94289 7.62156 9.86107 7.75975 9.83919 7.91291C9.81731 8.06606 9.85717 8.22163 9.95 8.3454L11.4375 10.3287L9.95 12.3121C9.85717 12.4358 9.81731 12.5914 9.83919 12.7446C9.86107 12.8977 9.94289 13.0359 10.0667 13.1287C10.1904 13.2216 10.346 13.2614 10.4992 13.2395C10.6523 13.2177 10.7905 13.1358 10.8833 13.0121L12.1667 11.3012L13.45 13.0121C13.496 13.0734 13.5535 13.125 13.6195 13.164C13.6854 13.203 13.7583 13.2287 13.8342 13.2395C13.91 13.2504 13.9872 13.2462 14.0614 13.2272C14.1356 13.2081 14.2054 13.1747 14.2667 13.1287C14.3279 13.0828 14.3796 13.0252 14.4186 12.9593C14.4576 12.8934 14.4833 12.8204 14.4941 12.7446C14.505 12.6687 14.5008 12.5915 14.4817 12.5173C14.4627 12.4431 14.4293 12.3734 14.3833 12.3121L12.8958 10.3287L14.3833 8.3454C14.4293 8.28412 14.4627 8.21438 14.4817 8.14017C14.5008 8.06597 14.505 7.98874 14.4941 7.91291C14.4833 7.83707 14.4576 7.76411 14.4186 7.6982C14.3796 7.63228 14.3279 7.5747 14.2667 7.52874Z" fill="white"/>
</g>
<defs>
<clipPath id="clip0_21_2771">
<rect width="14" height="14" fill="white" transform="translate(0.5 0.412109)"/>
</clipPath>
</defs>
</svg>
