<svg width="75" height="75" viewBox="0 0 75 75" fill="none" xmlns="http://www.w3.org/2000/svg">
<circle cx="37.5" cy="37.5" r="37.5" fill="white"/>
<path d="M17.1784 55.7812H28.6873C30.9766 55.7812 33.1721 56.6907 34.7908 58.3094C36.4096 59.9282 37.319 62.1237 37.319 64.4129V35.6407C37.319 27.5039 37.319 23.4326 34.7899 20.9064C32.2637 18.3773 28.1924 18.3773 20.0556 18.3773H17.1784C14.4652 18.3773 13.11 18.3773 12.267 19.2203C11.424 20.0634 11.424 21.4185 11.424 24.1318V50.0268C11.424 52.74 11.424 54.0952 12.267 54.9382C13.11 55.7812 14.4652 55.7812 17.1784 55.7812Z" fill="#50AFDE" fill-opacity="0.8"/>
<path d="M57.4595 55.7812H48.8278C46.5386 55.7812 44.3431 56.6907 42.7243 58.3094C41.1056 59.9282 40.1961 62.1237 40.1961 64.4129V35.6407C40.1961 27.5039 40.1961 23.4326 42.7252 20.9064C45.2514 18.3773 49.3227 18.3773 57.4595 18.3773C60.1727 18.3773 61.5279 18.3773 62.3709 19.2203C63.2139 20.0634 63.2139 21.4185 63.2139 24.1318V50.0268C63.2139 52.74 63.2139 54.0952 62.3709 54.9382C61.5279 55.7812 60.1727 55.7812 57.4595 55.7812ZM17.1783 18.8089C17.1783 18.6944 17.2238 18.5847 17.3048 18.5037C17.3857 18.4228 17.4955 18.3773 17.6099 18.3773H25.3784C25.4929 18.3773 25.6027 18.4228 25.6836 18.5037C25.7646 18.5847 25.81 18.6944 25.81 18.8089V31.0256C25.8103 31.1681 25.7682 31.3074 25.6892 31.4259C25.6102 31.5444 25.4978 31.6368 25.3662 31.6914C25.2346 31.7459 25.0897 31.7602 24.95 31.7323C24.8103 31.7044 24.682 31.6357 24.5814 31.5349L22.0035 28.9569C21.9366 28.8899 21.8573 28.8367 21.7699 28.8005C21.6825 28.7642 21.5888 28.7456 21.4942 28.7456C21.3996 28.7456 21.3059 28.7642 21.2185 28.8005C21.1311 28.8367 21.0517 28.8899 20.9849 28.9569L18.4069 31.5349C18.3063 31.6357 18.178 31.7044 18.0383 31.7323C17.8986 31.7602 17.7538 31.7459 17.6222 31.6914C17.4906 31.6368 17.3782 31.5444 17.2992 31.4259C17.2201 31.3074 17.1781 31.1681 17.1783 31.0256V18.8089Z" fill="#4178D4"/>
</svg>
