<svg width="102" height="96" viewBox="0 0 102 96" fill="none" xmlns="http://www.w3.org/2000/svg">
<g filter="url(#filter0_d_18_2530)">
<circle cx="48" cy="44" r="40" fill="#C4C4C4"/>
<circle cx="48" cy="44" r="38" stroke="white" stroke-width="4"/>
</g>
<circle cx="83" cy="26" r="17.25" fill="#4178D4" stroke="white" stroke-width="2.5"/>
<g clip-path="url(#clip0_18_2530)">
<path d="M87.6667 20.6667H87.328L85.872 18.7787C85.6844 18.5372 85.4442 18.3416 85.1698 18.2067C84.8953 18.0718 84.5938 18.0011 84.288 18H81.712C81.4062 18.0011 81.1047 18.0718 80.8302 18.2067C80.5558 18.3416 80.3156 18.5372 80.128 18.7787L78.672 20.6667H78.3333C77.4496 20.6677 76.6024 21.0193 75.9775 21.6441C75.3526 22.269 75.0011 23.1163 75 24V30.6667C75.0011 31.5504 75.3526 32.3976 75.9775 33.0225C76.6024 33.6474 77.4496 33.9989 78.3333 34H87.6667C88.5504 33.9989 89.3976 33.6474 90.0225 33.0225C90.6474 32.3976 90.9989 31.5504 91 30.6667V24C90.9989 23.1163 90.6474 22.269 90.0225 21.6441C89.3976 21.0193 88.5504 20.6677 87.6667 20.6667ZM81.184 19.5933C81.2464 19.5127 81.3265 19.4474 81.418 19.4023C81.5095 19.3573 81.61 19.3337 81.712 19.3333H84.288C84.39 19.3338 84.4905 19.3574 84.582 19.4025C84.6735 19.4475 84.7535 19.5128 84.816 19.5933L85.644 20.6667H80.356L81.184 19.5933ZM89.6667 30.6667C89.6667 31.1971 89.456 31.7058 89.0809 32.0809C88.7058 32.456 88.1971 32.6667 87.6667 32.6667H78.3333C77.8029 32.6667 77.2942 32.456 76.9191 32.0809C76.544 31.7058 76.3333 31.1971 76.3333 30.6667V24C76.3333 23.4696 76.544 22.9609 76.9191 22.5858C77.2942 22.2107 77.8029 22 78.3333 22H87.6667C88.1971 22 88.7058 22.2107 89.0809 22.5858C89.456 22.9609 89.6667 23.4696 89.6667 24V30.6667Z" fill="white"/>
<path d="M83 23.3333C82.2089 23.3333 81.4355 23.5679 80.7777 24.0074C80.1199 24.447 79.6072 25.0717 79.3045 25.8026C79.0017 26.5335 78.9225 27.3378 79.0769 28.1137C79.2312 28.8896 79.6122 29.6023 80.1716 30.1617C80.731 30.7212 81.4437 31.1021 82.2196 31.2565C82.9956 31.4108 83.7998 31.3316 84.5307 31.0288C85.2616 30.7261 85.8864 30.2134 86.3259 29.5556C86.7654 28.8978 87 28.1244 87 27.3333C86.9989 26.2728 86.5772 25.256 85.8273 24.5061C85.0773 23.7561 84.0605 23.3344 83 23.3333ZM83 30C82.4726 30 81.957 29.8436 81.5185 29.5506C81.08 29.2575 80.7382 28.8411 80.5363 28.3538C80.3345 27.8665 80.2817 27.3304 80.3846 26.8131C80.4875 26.2958 80.7414 25.8206 81.1144 25.4477C81.4873 25.0748 81.9625 24.8208 82.4798 24.7179C82.997 24.615 83.5332 24.6678 84.0205 24.8696C84.5078 25.0715 84.9242 25.4133 85.2173 25.8518C85.5103 26.2903 85.6667 26.8059 85.6667 27.3333C85.6667 28.0406 85.3857 28.7188 84.8856 29.2189C84.3855 29.719 83.7072 30 83 30Z" fill="white"/>
</g>
<defs>
<filter id="filter0_d_18_2530" x="0" y="0" width="96" height="96" filterUnits="userSpaceOnUse" color-interpolation-filters="sRGB">
<feFlood flood-opacity="0" result="BackgroundImageFix"/>
<feColorMatrix in="SourceAlpha" type="matrix" values="0 0 0 0 0 0 0 0 0 0 0 0 0 0 0 0 0 0 127 0" result="hardAlpha"/>
<feOffset dy="4"/>
<feGaussianBlur stdDeviation="4"/>
<feComposite in2="hardAlpha" operator="out"/>
<feColorMatrix type="matrix" values="0 0 0 0 0.27847 0 0 0 0 0.299363 0 0 0 0 0.487399 0 0 0 0.15 0"/>
<feBlend mode="normal" in2="BackgroundImageFix" result="effect1_dropShadow_18_2530"/>
<feBlend mode="normal" in="SourceGraphic" in2="effect1_dropShadow_18_2530" result="shape"/>
</filter>
<clipPath id="clip0_18_2530">
<rect width="16" height="16" fill="white" transform="translate(75 18)"/>
</clipPath>
</defs>
</svg>
