<svg width="21" height="21" viewBox="0 0 21 21" fill="none" xmlns="http://www.w3.org/2000/svg">
<path d="M13.6082 8.5326L9.78401 4.71093C9.62534 4.56747 9.41757 4.49051 9.20372 4.496C8.98988 4.50149 8.78634 4.58901 8.63523 4.74043C8.48413 4.89185 8.39705 5.09558 8.39201 5.30944C8.38698 5.5233 8.46437 5.7309 8.60818 5.88927L12.4298 9.71093C12.5861 9.86721 12.6738 10.0791 12.6738 10.3001C12.6738 10.5211 12.5861 10.733 12.4298 10.8893L8.60818 14.7109C8.45192 14.8673 8.36418 15.0793 8.36426 15.3004C8.36434 15.5215 8.45223 15.7334 8.60859 15.8897C8.76496 16.0459 8.977 16.1337 9.19805 16.1336C9.41911 16.1335 9.63109 16.0456 9.78734 15.8893L13.6082 12.0676C14.0769 11.5988 14.3401 10.963 14.3401 10.3001C14.3401 9.63719 14.0769 9.00142 13.6082 8.5326Z" fill="#64748B"/>
</svg>
