<svg width="20" height="21" viewBox="0 0 20 21" fill="none" xmlns="http://www.w3.org/2000/svg">
<g clip-path="url(#clip0_18_1401)">
<path d="M18.5 2.30251C18.0249 1.90614 17.4676 1.62055 16.8684 1.46646C16.2692 1.31237 15.6432 1.29365 15.0358 1.41167L13.5658 1.77167C12.7987 1.91225 12.1051 2.31737 11.6059 2.91653C11.1066 3.51568 10.8332 4.27093 10.8333 5.05084V17.94C10.2807 18.0208 9.71928 18.0208 9.16667 17.94V5.05084C9.16943 4.27813 8.90237 3.52868 8.41157 2.93184C7.92078 2.33501 7.23703 1.92822 6.47833 1.78167L4.91667 1.40167C4.31596 1.29175 3.69844 1.31522 3.10781 1.4704C2.51718 1.62559 1.96789 1.90871 1.4988 2.29972C1.02972 2.69073 0.652322 3.18007 0.393318 3.7331C0.134315 4.28613 4.0677e-05 4.88933 0 5.50001L0 14.4942C4.78799e-05 15.4698 0.342481 16.4146 0.967611 17.1636C1.59274 17.9127 2.46092 18.4187 3.42083 18.5933L8.65917 19.5458C9.5458 19.7069 10.4542 19.7069 11.3408 19.5458L16.5833 18.5933C17.5425 18.4178 18.4097 17.9115 19.034 17.1625C19.6583 16.4135 20.0001 15.4692 20 14.4942V5.50001C20.0004 4.88954 19.8662 4.28651 19.6069 3.73383C19.3476 3.18116 18.9697 2.69245 18.5 2.30251Z" fill="white"/>
</g>
<defs>
<clipPath id="clip0_18_1401">
<rect width="20" height="20" fill="white" transform="translate(0 0.5)"/>
</clipPath>
</defs>
</svg>
