<svg width="21" height="20" viewBox="0 0 21 20" fill="none" xmlns="http://www.w3.org/2000/svg">
<path d="M17.7727 7.98989V5.28445C17.8118 3.91396 17.0685 2.58852 15.7055 1.59816C14.3425 0.607798 12.4708 0.0331643 10.5 0C8.52918 0.0331643 6.65749 0.607798 5.29451 1.59816C3.93152 2.58852 3.18823 3.91396 3.22727 5.28445V7.98989H0.5V18.7358C0.5 19.0711 0.691558 19.3926 1.03253 19.6297C1.37351 19.8668 1.83597 20 2.31818 20H18.6818C19.164 20 19.6265 19.8668 19.9675 19.6297C20.3084 19.3926 20.5 19.0711 20.5 18.7358V7.98989H17.7727ZM11.4091 14.4564V16.2073H9.59091V14.3995C9.14831 14.2411 8.79689 13.9823 8.59495 13.666C8.39301 13.3497 8.3527 12.9948 8.48071 12.6604C8.60871 12.3259 8.89733 12.032 9.29868 11.8273C9.70003 11.6226 10.19 11.5194 10.6872 11.535C11.1845 11.5505 11.6591 11.6839 12.0324 11.9128C12.4057 12.1417 12.6552 12.4525 12.7395 12.7936C12.8237 13.1347 12.7378 13.4856 12.4958 13.7881C12.2538 14.0905 11.8704 14.3263 11.4091 14.4564ZM15.9545 7.98989H5.04545V5.28445C5.00626 4.2492 5.55796 3.24525 6.58001 2.49196C7.60206 1.73866 9.01137 1.29727 10.5 1.26422C11.9886 1.29727 13.3979 1.73866 14.42 2.49196C15.442 3.24525 15.9937 4.2492 15.9545 5.28445V7.98989Z" fill="white"/>
</svg>
